<svg width="24" height="25" viewBox="0 0 24 25" fill="none" xmlns="http://www.w3.org/2000/svg">
<path d="M12 22.5C13.9778 22.5 15.9112 21.9135 17.5557 20.8147C19.2002 19.7159 20.4819 18.1541 21.2388 16.3268C21.9957 14.4996 22.1937 12.4889 21.8078 10.5491C21.422 8.60929 20.4696 6.82746 19.0711 5.42894C17.6725 4.03041 15.8907 3.078 13.9509 2.69215C12.0111 2.3063 10.0004 2.50433 8.17316 3.26121C6.3459 4.01809 4.78412 5.29981 3.6853 6.9443C2.58649 8.58879 2 10.5222 2 12.5C2 14.1533 2.4 15.7111 3.11111 17.0856L2 22.5L7.41444 21.3889C8.78778 22.0989 10.3478 22.5 12 22.5Z" stroke="#001F54" stroke-width="2" stroke-linecap="round" stroke-linejoin="round"/>
</svg>
