<svg width="24" height="25" viewBox="0 0 24 25" fill="none" xmlns="http://www.w3.org/2000/svg">
<g clip-path="url(#clip0_483_497)">
<path d="M22.69 18.87L23.83 17.87L22.83 16.14L21.38 16.63C21.0583 16.3603 20.6931 16.1472 20.3 16L20 14.5H18L17.7 15.99C17.3069 16.1372 16.9417 16.3503 16.62 16.62L15.17 16.13L14.17 17.86L15.31 18.86C15.2291 19.2761 15.2291 19.7039 15.31 20.12L14.17 21.12L15.17 22.85L16.62 22.36C16.9417 22.6297 17.3069 22.8428 17.7 22.99L18 24.5H20L20.3 23.01C20.6931 22.8628 21.0583 22.6497 21.38 22.38L22.83 22.87L23.83 21.14L22.69 20.14C22.7698 19.7204 22.7698 19.2896 22.69 18.87ZM19 21.5C18.6044 21.5 18.2178 21.3827 17.8889 21.1629C17.56 20.9432 17.3036 20.6308 17.1522 20.2654C17.0009 19.8999 16.9613 19.4978 17.0384 19.1098C17.1156 18.7219 17.3061 18.3655 17.5858 18.0858C17.8655 17.8061 18.2219 17.6156 18.6098 17.5384C18.9978 17.4613 19.3999 17.5009 19.7654 17.6522C20.1308 17.8036 20.4432 18.06 20.6629 18.3889C20.8827 18.7178 21 19.1044 21 19.5C20.9984 20.0299 20.7872 20.5377 20.4125 20.9125C20.0377 21.2872 19.5299 21.4984 19 21.5ZM23 11.5H1V1.5H23V11.5ZM3 9.5H21V3.5H3V9.5ZM13 5.5H4V7.5H13V5.5ZM16 5.5C15.8022 5.5 15.6089 5.55865 15.4444 5.66853C15.28 5.77841 15.1518 5.93459 15.0761 6.11732C15.0004 6.30004 14.9806 6.50111 15.0192 6.69509C15.0578 6.88907 15.153 7.06725 15.2929 7.20711C15.4327 7.34696 15.6109 7.4422 15.8049 7.48079C15.9989 7.51937 16.2 7.49957 16.3827 7.42388C16.5654 7.34819 16.7216 7.22002 16.8315 7.05557C16.9414 6.89112 17 6.69778 17 6.5C17 6.23478 16.8946 5.98043 16.7071 5.79289C16.5196 5.60536 16.2652 5.5 16 5.5ZM19 5.5C18.8022 5.5 18.6089 5.55865 18.4444 5.66853C18.28 5.77841 18.1518 5.93459 18.0761 6.11732C18.0004 6.30004 17.9806 6.50111 18.0192 6.69509C18.0578 6.88907 18.153 7.06725 18.2929 7.20711C18.4327 7.34696 18.6109 7.4422 18.8049 7.48079C18.9989 7.51937 19.2 7.49957 19.3827 7.42388C19.5654 7.34819 19.7216 7.22002 19.8315 7.05557C19.9414 6.89112 20 6.69778 20 6.5C20 6.23478 19.8946 5.98043 19.7071 5.79289C19.5196 5.60536 19.2652 5.5 19 5.5Z" fill="white"/>
<path d="M12.294 21.5H3V15.5H13.26C13.8266 14.689 14.5587 14.0074 15.408 13.5H1V23.5H13.26C12.8336 22.889 12.5075 22.2138 12.294 21.5Z" fill="white"/>
<path d="M4 19.5H12C12.0007 18.8226 12.0997 18.1489 12.294 17.5H4V19.5Z" fill="white"/>
</g>
<defs>
<clipPath id="clip0_483_497">
<rect width="24" height="24" fill="white" transform="translate(0 0.5)"/>
</clipPath>
</defs>
</svg>
