<svg width="36" height="25" viewBox="0 0 36 25" fill="none" xmlns="http://www.w3.org/2000/svg">
<g clip-path="url(#clip0_764_150)">
<path d="M19.4998 11.2596H18.9198C18.1283 11.231 17.3394 11.3654 16.602 11.6544C15.8646 11.9434 15.1944 12.3809 14.6331 12.9396L14.4731 13.1263V18.6463H17.1931V15.513L17.5598 15.0996L17.7265 14.9063C18.5944 14.0146 19.675 13.3585 20.8665 12.9996C20.2702 12.5455 19.7997 11.9466 19.4998 11.2596Z" fill="white"/>
<path d="M32.3935 12.9201C31.8323 12.3613 31.1621 11.9239 30.4247 11.6349C29.6873 11.3459 28.8984 11.2115 28.1069 11.2401C27.8641 11.2414 27.6216 11.2547 27.3802 11.2801C27.0747 11.9246 26.6171 12.4851 26.0469 12.9134C27.319 13.265 28.4713 13.9564 29.3802 14.9134L29.5469 15.1001L29.9069 15.5134V18.6534H32.5335V13.1068L32.3935 12.9201Z" fill="white"/>
<path d="M18.8999 9.95987H19.1066C19.0106 9.13536 19.1552 8.30069 19.5231 7.5566C19.891 6.8125 20.4665 6.1908 21.1799 5.76654C20.9213 5.37144 20.5645 5.05027 20.1445 4.8345C19.7244 4.61873 19.2555 4.51574 18.7837 4.53562C18.3119 4.5555 17.8534 4.69757 17.453 4.94792C17.0526 5.19827 16.7241 5.54831 16.4996 5.96377C16.2752 6.37923 16.1624 6.84586 16.1725 7.31797C16.1826 7.79008 16.3151 8.25149 16.557 8.657C16.799 9.06252 17.1421 9.39825 17.5528 9.63131C17.9635 9.86437 18.4277 9.98677 18.8999 9.98654V9.95987Z" fill="white"/>
<path d="M27.7868 9.46004C27.7944 9.61328 27.7944 9.7668 27.7868 9.92004C27.9147 9.94053 28.0439 9.95167 28.1735 9.95337H28.3001C28.7703 9.9283 29.2259 9.78193 29.6227 9.52849C30.0195 9.27506 30.3439 8.9232 30.5643 8.50718C30.7847 8.09116 30.8937 7.62515 30.8806 7.15453C30.8674 6.6839 30.7327 6.22469 30.4894 5.82161C30.2461 5.41853 29.9026 5.08531 29.4923 4.85439C29.082 4.62347 28.6189 4.50273 28.1481 4.50391C27.6773 4.5051 27.2148 4.62817 26.8057 4.86115C26.3966 5.09413 26.0547 5.42907 25.8135 5.83337C26.4169 6.22733 26.913 6.76491 27.2574 7.39788C27.6018 8.03086 27.7837 8.73943 27.7868 9.46004Z" fill="white"/>
<path d="M23.4131 12.4463C25.0589 12.4463 26.3931 11.1121 26.3931 9.46633C26.3931 7.82052 25.0589 6.48633 23.4131 6.48633C21.7673 6.48633 20.4331 7.82052 20.4331 9.46633C20.4331 11.1121 21.7673 12.4463 23.4131 12.4463Z" fill="white"/>
<path d="M23.5732 14.0333C22.7026 13.9986 21.8339 14.1401 21.0194 14.4494C20.2049 14.7587 19.4612 15.2294 18.8332 15.8333L18.6665 16.02V20.24C18.6691 20.3774 18.6988 20.513 18.7538 20.639C18.8088 20.765 18.8881 20.879 18.9872 20.9743C19.0862 21.0696 19.2031 21.1445 19.3311 21.1947C19.4591 21.2449 19.5957 21.2693 19.7332 21.2667H27.3932C27.5306 21.2693 27.6673 21.2449 27.7953 21.1947C27.9233 21.1445 28.0401 21.0696 28.1392 20.9743C28.2382 20.879 28.3175 20.765 28.3726 20.639C28.4276 20.513 28.4572 20.3774 28.4598 20.24V16.0333L28.2998 15.8333C27.6761 15.2273 26.9351 14.755 26.1223 14.4455C25.3095 14.136 24.4421 13.9957 23.5732 14.0333Z" fill="white"/>
</g>
<defs>
<clipPath id="clip0_764_150">
<rect width="24" height="24" fill="white" transform="translate(11.5 0.5)"/>
</clipPath>
</defs>
</svg>
