<svg width="407" height="72" viewBox="0 0 407 72" fill="none" xmlns="http://www.w3.org/2000/svg">
<mask id="path-1-inside-1_25_244" fill="white">
<path d="M0 0H407V72H0V0Z"/>
</mask>
<path d="M407 71H0V73H407V71Z" fill="black" mask="url(#path-1-inside-1_25_244)"/>
<path d="M20.1999 37.3C20.0832 37.2833 19.9332 37.2833 19.7999 37.3C16.8665 37.2 14.5332 34.8 14.5332 31.85C14.5332 28.8333 16.9665 26.3833 19.9999 26.3833C23.0165 26.3833 25.4665 28.8333 25.4665 31.85C25.4499 34.8 23.1332 37.2 20.1999 37.3Z" stroke="#292D32" stroke-width="3" stroke-linecap="round" stroke-linejoin="round"/>
<path d="M31.2333 48.3C28.2666 51.0166 24.3333 52.6666 19.9999 52.6666C15.6666 52.6666 11.7333 51.0166 8.7666 48.3C8.93327 46.7333 9.93327 45.2 11.7166 44C16.2833 40.9666 23.7499 40.9666 28.2833 44C30.0666 45.2 31.0666 46.7333 31.2333 48.3Z" stroke="#292D32" stroke-width="3" stroke-linecap="round" stroke-linejoin="round"/>
<path d="M20.0002 52.6667C29.2049 52.6667 36.6668 45.2048 36.6668 36C36.6668 26.7953 29.2049 19.3334 20.0002 19.3334C10.7954 19.3334 3.3335 26.7953 3.3335 36C3.3335 45.2048 10.7954 52.6667 20.0002 52.6667Z" stroke="#292D32" stroke-width="3" stroke-linecap="round" stroke-linejoin="round"/>
<path d="M60.9517 30.9545H63.1534V40.5213C63.1534 41.5393 62.9143 42.4413 62.4361 43.2273C61.9579 44.0085 61.2855 44.6241 60.419 45.0739C59.5526 45.5189 58.5369 45.7415 57.3722 45.7415C56.2121 45.7415 55.1989 45.5189 54.3324 45.0739C53.4659 44.6241 52.7936 44.0085 52.3153 43.2273C51.8371 42.4413 51.598 41.5393 51.598 40.5213V30.9545H53.7926V40.3438C53.7926 41.0019 53.937 41.5866 54.2259 42.098C54.5194 42.6094 54.9337 43.0118 55.4688 43.3054C56.0038 43.5942 56.6383 43.7386 57.3722 43.7386C58.1108 43.7386 58.7476 43.5942 59.2827 43.3054C59.8224 43.0118 60.2344 42.6094 60.5185 42.098C60.8073 41.5866 60.9517 41.0019 60.9517 40.3438V30.9545ZM74.3484 37.2543L72.4237 37.5952C72.3432 37.349 72.2153 37.1146 72.0401 36.892C71.8697 36.6695 71.6377 36.4872 71.3441 36.3452C71.0505 36.2031 70.6836 36.1321 70.2433 36.1321C69.6419 36.1321 69.14 36.267 68.7376 36.5369C68.3351 36.8021 68.1339 37.1454 68.1339 37.5668C68.1339 37.9313 68.2688 38.2249 68.5387 38.4474C68.8086 38.67 69.2442 38.8523 69.8455 38.9943L71.5785 39.392C72.5823 39.6241 73.3304 39.9815 73.8228 40.4645C74.3152 40.9474 74.5614 41.5748 74.5614 42.3466C74.5614 43 74.372 43.5824 73.9933 44.0938C73.6192 44.6004 73.096 44.9981 72.4237 45.2869C71.756 45.5758 70.9819 45.7202 70.1012 45.7202C68.8796 45.7202 67.8829 45.4598 67.1112 44.9389C66.3394 44.4134 65.8659 43.6676 65.6907 42.7017L67.7433 42.3892C67.8711 42.9242 68.1339 43.3291 68.5316 43.6037C68.9293 43.8736 69.4478 44.0085 70.087 44.0085C70.783 44.0085 71.3394 43.8641 71.756 43.5753C72.1727 43.2817 72.381 42.9242 72.381 42.5028C72.381 42.1619 72.2532 41.8755 71.9975 41.6435C71.7466 41.4115 71.3607 41.2363 70.8398 41.1179L68.9933 40.7131C67.9753 40.4811 67.2224 40.1117 66.7347 39.6051C66.2518 39.0985 66.0103 38.4569 66.0103 37.6804C66.0103 37.0365 66.1902 36.473 66.5501 35.9901C66.9099 35.5071 67.4071 35.1307 68.0415 34.8608C68.676 34.5862 69.4028 34.4489 70.2219 34.4489C71.4009 34.4489 72.329 34.7045 73.006 35.2159C73.6831 35.7225 74.1306 36.402 74.3484 37.2543ZM81.598 45.7202C80.5232 45.7202 79.5975 45.4905 78.821 45.0312C78.0492 44.5672 77.4527 43.9162 77.0312 43.0781C76.6146 42.2353 76.4062 41.2481 76.4062 40.1165C76.4062 38.9991 76.6146 38.0142 77.0312 37.1619C77.4527 36.3097 78.0398 35.6444 78.7926 35.1662C79.5502 34.688 80.4356 34.4489 81.4489 34.4489C82.0644 34.4489 82.661 34.5507 83.2386 34.7543C83.8163 34.9579 84.3348 35.2775 84.794 35.7131C85.2533 36.1487 85.6155 36.7145 85.8807 37.4105C86.1458 38.1018 86.2784 38.9422 86.2784 39.9318V40.6847H77.6065V39.0938H84.1974C84.1974 38.535 84.0838 38.0402 83.8565 37.6094C83.6293 37.1738 83.3097 36.8305 82.8977 36.5795C82.4905 36.3286 82.0123 36.2031 81.4631 36.2031C80.8665 36.2031 80.3456 36.3499 79.9006 36.6435C79.4602 36.9323 79.1193 37.3111 78.8778 37.7798C78.6411 38.2438 78.5227 38.7481 78.5227 39.2926V40.5355C78.5227 41.2647 78.6506 41.8849 78.9062 42.3963C79.1667 42.9077 79.5289 43.2983 79.9929 43.5682C80.4569 43.8333 80.9991 43.9659 81.6193 43.9659C82.0218 43.9659 82.3887 43.9091 82.7202 43.7955C83.0516 43.6771 83.3381 43.5019 83.5795 43.2699C83.821 43.0379 84.0057 42.7514 84.1335 42.4105L86.1435 42.7727C85.9825 43.3646 85.6937 43.883 85.277 44.3281C84.8651 44.7685 84.3466 45.1117 83.7216 45.358C83.1013 45.5994 82.3935 45.7202 81.598 45.7202ZM97.1023 45.7415C96.411 45.7415 95.786 45.6136 95.2273 45.358C94.6686 45.0975 94.2259 44.7211 93.8991 44.2287C93.5772 43.7363 93.4162 43.1326 93.4162 42.4176C93.4162 41.8021 93.5346 41.2955 93.7713 40.8977C94.008 40.5 94.3277 40.1851 94.7301 39.9531C95.1326 39.7211 95.5824 39.5459 96.0795 39.4276C96.5767 39.3092 97.0833 39.2192 97.5994 39.1577C98.2528 39.0819 98.7831 39.0204 99.1903 38.973C99.5975 38.9209 99.8935 38.8381 100.078 38.7244C100.263 38.6108 100.355 38.4261 100.355 38.1705V38.1207C100.355 37.5005 100.18 37.0199 99.8295 36.679C99.4839 36.3381 98.9678 36.1676 98.2812 36.1676C97.5663 36.1676 97.0028 36.3262 96.5909 36.6435C96.1837 36.956 95.902 37.304 95.7457 37.6875L93.75 37.233C93.9867 36.5701 94.3324 36.035 94.7869 35.6278C95.2462 35.2159 95.7741 34.9176 96.3707 34.733C96.9673 34.5436 97.5947 34.4489 98.2528 34.4489C98.6884 34.4489 99.1501 34.5009 99.6378 34.6051C100.13 34.7045 100.589 34.8892 101.016 35.1591C101.446 35.429 101.799 35.8149 102.074 36.3168C102.348 36.8139 102.486 37.4602 102.486 38.2557V45.5H100.412V44.0085H100.327C100.189 44.2831 99.9834 44.553 99.7088 44.8182C99.4342 45.0833 99.0814 45.3035 98.6506 45.4787C98.2197 45.6539 97.7036 45.7415 97.1023 45.7415ZM97.5639 44.0369C98.151 44.0369 98.6529 43.9209 99.0696 43.6889C99.491 43.4569 99.8106 43.1539 100.028 42.7798C100.251 42.401 100.362 41.9962 100.362 41.5653V40.1591C100.286 40.2348 100.14 40.3059 99.9219 40.3722C99.7088 40.4337 99.465 40.4882 99.1903 40.5355C98.9157 40.5781 98.6482 40.6184 98.3878 40.6562C98.1274 40.6894 97.9096 40.7178 97.7344 40.7415C97.3224 40.7936 96.946 40.8812 96.6051 41.0043C96.2689 41.1274 95.9991 41.3049 95.7955 41.5369C95.5966 41.7642 95.4972 42.0672 95.4972 42.446C95.4972 42.9716 95.6913 43.3693 96.0795 43.6392C96.4678 43.9044 96.9626 44.0369 97.5639 44.0369ZM107.438 39.0227V45.5H105.314V34.5909H107.353V36.3665H107.488C107.739 35.7888 108.132 35.3248 108.667 34.9744C109.206 34.6241 109.886 34.4489 110.705 34.4489C111.448 34.4489 112.099 34.6051 112.658 34.9176C113.217 35.2254 113.65 35.6847 113.958 36.2955C114.266 36.9062 114.419 37.6615 114.419 38.5611V45.5H112.296V38.8168C112.296 38.026 112.09 37.4081 111.678 36.9631C111.266 36.5133 110.7 36.2884 109.98 36.2884C109.488 36.2884 109.05 36.3949 108.667 36.608C108.288 36.821 107.987 37.1335 107.765 37.5455C107.547 37.9527 107.438 38.4451 107.438 39.0227ZM121.863 45.7202C120.84 45.7202 119.947 45.4858 119.185 45.017C118.423 44.5483 117.831 43.8925 117.409 43.0497C116.988 42.2069 116.777 41.2221 116.777 40.0952C116.777 38.9635 116.988 37.974 117.409 37.1264C117.831 36.2789 118.423 35.6207 119.185 35.152C119.947 34.6832 120.84 34.4489 121.863 34.4489C122.885 34.4489 123.778 34.6832 124.54 35.152C125.302 35.6207 125.894 36.2789 126.316 37.1264C126.737 37.974 126.948 38.9635 126.948 40.0952C126.948 41.2221 126.737 42.2069 126.316 43.0497C125.894 43.8925 125.302 44.5483 124.54 45.017C123.778 45.4858 122.885 45.7202 121.863 45.7202ZM121.87 43.9375C122.533 43.9375 123.082 43.7623 123.517 43.4119C123.953 43.0616 124.275 42.5952 124.483 42.0128C124.696 41.4304 124.803 40.7888 124.803 40.0881C124.803 39.392 124.696 38.7528 124.483 38.1705C124.275 37.5833 123.953 37.1122 123.517 36.7571C123.082 36.402 122.533 36.2244 121.87 36.2244C121.202 36.2244 120.648 36.402 120.208 36.7571C119.772 37.1122 119.448 37.5833 119.235 38.1705C119.026 38.7528 118.922 39.392 118.922 40.0881C118.922 40.7888 119.026 41.4304 119.235 42.0128C119.448 42.5952 119.772 43.0616 120.208 43.4119C120.648 43.7623 121.202 43.9375 121.87 43.9375ZM134.411 34.5909V36.2955H128.452V34.5909H134.411ZM130.05 31.9773H132.173V42.2969C132.173 42.7088 132.235 43.0189 132.358 43.2273C132.481 43.4309 132.64 43.5705 132.834 43.6463C133.033 43.7173 133.248 43.7528 133.48 43.7528C133.651 43.7528 133.8 43.741 133.928 43.7173C134.055 43.6937 134.155 43.6747 134.226 43.6605L134.609 45.4148C134.486 45.4621 134.311 45.5095 134.084 45.5568C133.857 45.6089 133.572 45.6373 133.232 45.642C132.673 45.6515 132.152 45.5521 131.669 45.3438C131.186 45.1354 130.795 44.8134 130.497 44.3778C130.199 43.9422 130.05 43.3954 130.05 42.7372V31.9773ZM139.118 39.0227V45.5H136.994V30.9545H139.089V36.3665H139.224C139.48 35.7794 139.87 35.313 140.396 34.9673C140.922 34.6217 141.608 34.4489 142.456 34.4489C143.204 34.4489 143.857 34.6027 144.416 34.9105C144.979 35.2183 145.415 35.6776 145.723 36.2884C146.035 36.8944 146.191 37.652 146.191 38.5611V45.5H144.068V38.8168C144.068 38.0166 143.862 37.3963 143.45 36.956C143.038 36.5109 142.465 36.2884 141.731 36.2884C141.229 36.2884 140.779 36.3949 140.382 36.608C139.989 36.821 139.679 37.1335 139.451 37.5455C139.229 37.9527 139.118 38.4451 139.118 39.0227ZM153.727 45.7202C152.652 45.7202 151.726 45.4905 150.95 45.0312C150.178 44.5672 149.582 43.9162 149.16 43.0781C148.743 42.2353 148.535 41.2481 148.535 40.1165C148.535 38.9991 148.743 38.0142 149.16 37.1619C149.582 36.3097 150.169 35.6444 150.922 35.1662C151.679 34.688 152.565 34.4489 153.578 34.4489C154.193 34.4489 154.79 34.5507 155.368 34.7543C155.945 34.9579 156.464 35.2775 156.923 35.7131C157.382 36.1487 157.744 36.7145 158.01 37.4105C158.275 38.1018 158.407 38.9422 158.407 39.9318V40.6847H149.735V39.0938H156.326C156.326 38.535 156.213 38.0402 155.985 37.6094C155.758 37.1738 155.439 36.8305 155.027 36.5795C154.619 36.3286 154.141 36.2031 153.592 36.2031C152.995 36.2031 152.475 36.3499 152.029 36.6435C151.589 36.9323 151.248 37.3111 151.007 37.7798C150.77 38.2438 150.652 38.7481 150.652 39.2926V40.5355C150.652 41.2647 150.779 41.8849 151.035 42.3963C151.296 42.9077 151.658 43.2983 152.122 43.5682C152.586 43.8333 153.128 43.9659 153.748 43.9659C154.151 43.9659 154.518 43.9091 154.849 43.7955C155.181 43.6771 155.467 43.5019 155.708 43.2699C155.95 43.0379 156.135 42.7514 156.262 42.4105L158.272 42.7727C158.111 43.3646 157.823 43.883 157.406 44.3281C156.994 44.7685 156.475 45.1117 155.85 45.358C155.23 45.5994 154.522 45.7202 153.727 45.7202ZM160.763 45.5V34.5909H162.816V36.3239H162.93C163.129 35.7367 163.479 35.2751 163.981 34.9389C164.487 34.598 165.06 34.4276 165.7 34.4276C165.832 34.4276 165.988 34.4323 166.168 34.4418C166.353 34.4512 166.497 34.4631 166.602 34.4773V36.5085C166.516 36.4848 166.365 36.4588 166.147 36.4304C165.929 36.3973 165.711 36.3807 165.494 36.3807C164.992 36.3807 164.544 36.4872 164.151 36.7003C163.763 36.9086 163.455 37.1998 163.228 37.5739C163.001 37.9432 162.887 38.3646 162.887 38.8381V45.5H160.763ZM176.907 45.7415C176.216 45.7415 175.591 45.6136 175.032 45.358C174.473 45.0975 174.031 44.7211 173.704 44.2287C173.382 43.7363 173.221 43.1326 173.221 42.4176C173.221 41.8021 173.339 41.2955 173.576 40.8977C173.813 40.5 174.132 40.1851 174.535 39.9531C174.937 39.7211 175.387 39.5459 175.884 39.4276C176.381 39.3092 176.888 39.2192 177.404 39.1577C178.058 39.0819 178.588 39.0204 178.995 38.973C179.402 38.9209 179.698 38.8381 179.883 38.7244C180.067 38.6108 180.16 38.4261 180.16 38.1705V38.1207C180.16 37.5005 179.985 37.0199 179.634 36.679C179.289 36.3381 178.772 36.1676 178.086 36.1676C177.371 36.1676 176.808 36.3262 176.396 36.6435C175.988 36.956 175.707 37.304 175.55 37.6875L173.555 37.233C173.791 36.5701 174.137 36.035 174.592 35.6278C175.051 35.2159 175.579 34.9176 176.175 34.733C176.772 34.5436 177.399 34.4489 178.058 34.4489C178.493 34.4489 178.955 34.5009 179.442 34.6051C179.935 34.7045 180.394 34.8892 180.82 35.1591C181.251 35.429 181.604 35.8149 181.879 36.3168C182.153 36.8139 182.29 37.4602 182.29 38.2557V45.5H180.217V44.0085H180.131C179.994 44.2831 179.788 44.553 179.513 44.8182C179.239 45.0833 178.886 45.3035 178.455 45.4787C178.024 45.6539 177.508 45.7415 176.907 45.7415ZM177.369 44.0369C177.956 44.0369 178.458 43.9209 178.874 43.6889C179.296 43.4569 179.615 43.1539 179.833 42.7798C180.056 42.401 180.167 41.9962 180.167 41.5653V40.1591C180.091 40.2348 179.944 40.3059 179.727 40.3722C179.513 40.4337 179.27 40.4882 178.995 40.5355C178.72 40.5781 178.453 40.6184 178.192 40.6562C177.932 40.6894 177.714 40.7178 177.539 40.7415C177.127 40.7936 176.751 40.8812 176.41 41.0043C176.074 41.1274 175.804 41.3049 175.6 41.5369C175.401 41.7642 175.302 42.0672 175.302 42.446C175.302 42.9716 175.496 43.3693 175.884 43.6392C176.272 43.9044 176.767 44.0369 177.369 44.0369ZM189.714 45.7202C188.658 45.7202 187.749 45.4811 186.987 45.0028C186.229 44.5199 185.647 43.8546 185.24 43.0071C184.833 42.1596 184.629 41.1889 184.629 40.0952C184.629 38.9872 184.837 38.0095 185.254 37.1619C185.671 36.3097 186.258 35.6444 187.015 35.1662C187.773 34.688 188.665 34.4489 189.693 34.4489C190.521 34.4489 191.26 34.6027 191.909 34.9105C192.557 35.2135 193.081 35.6397 193.478 36.1889C193.881 36.7382 194.12 37.3797 194.196 38.1136H192.129C192.015 37.6023 191.755 37.1619 191.348 36.7926C190.945 36.4233 190.405 36.2386 189.728 36.2386C189.136 36.2386 188.618 36.3949 188.173 36.7074C187.733 37.0152 187.389 37.4555 187.143 38.0284C186.897 38.5966 186.774 39.2689 186.774 40.0455C186.774 40.8409 186.895 41.5275 187.136 42.1051C187.377 42.6828 187.718 43.1302 188.159 43.4474C188.604 43.7647 189.127 43.9233 189.728 43.9233C190.131 43.9233 190.495 43.8499 190.822 43.7031C191.154 43.5516 191.431 43.3362 191.653 43.0568C191.88 42.7775 192.039 42.4413 192.129 42.0483H194.196C194.12 42.7538 193.89 43.3835 193.507 43.9375C193.123 44.4915 192.609 44.9271 191.966 45.2443C191.326 45.5616 190.576 45.7202 189.714 45.7202ZM201.062 45.7202C200.006 45.7202 199.097 45.4811 198.335 45.0028C197.577 44.5199 196.995 43.8546 196.587 43.0071C196.18 42.1596 195.977 41.1889 195.977 40.0952C195.977 38.9872 196.185 38.0095 196.602 37.1619C197.018 36.3097 197.605 35.6444 198.363 35.1662C199.121 34.688 200.013 34.4489 201.04 34.4489C201.869 34.4489 202.608 34.6027 203.256 34.9105C203.905 35.2135 204.428 35.6397 204.826 36.1889C205.228 36.7382 205.468 37.3797 205.543 38.1136H203.477C203.363 37.6023 203.103 37.1619 202.695 36.7926C202.293 36.4233 201.753 36.2386 201.076 36.2386C200.484 36.2386 199.966 36.3949 199.521 36.7074C199.08 37.0152 198.737 37.4555 198.491 38.0284C198.245 38.5966 198.121 39.2689 198.121 40.0455C198.121 40.8409 198.242 41.5275 198.484 42.1051C198.725 42.6828 199.066 43.1302 199.506 43.4474C199.951 43.7647 200.475 43.9233 201.076 43.9233C201.478 43.9233 201.843 43.8499 202.17 43.7031C202.501 43.5516 202.778 43.3362 203.001 43.0568C203.228 42.7775 203.387 42.4413 203.477 42.0483H205.543C205.468 42.7538 205.238 43.3835 204.854 43.9375C204.471 44.4915 203.957 44.9271 203.313 45.2443C202.674 45.5616 201.924 45.7202 201.062 45.7202ZM212.409 45.7202C211.387 45.7202 210.494 45.4858 209.732 45.017C208.97 44.5483 208.378 43.8925 207.956 43.0497C207.535 42.2069 207.324 41.2221 207.324 40.0952C207.324 38.9635 207.535 37.974 207.956 37.1264C208.378 36.2789 208.97 35.6207 209.732 35.152C210.494 34.6832 211.387 34.4489 212.409 34.4489C213.432 34.4489 214.325 34.6832 215.087 35.152C215.849 35.6207 216.441 36.2789 216.863 37.1264C217.284 37.974 217.495 38.9635 217.495 40.0952C217.495 41.2221 217.284 42.2069 216.863 43.0497C216.441 43.8925 215.849 44.5483 215.087 45.017C214.325 45.4858 213.432 45.7202 212.409 45.7202ZM212.417 43.9375C213.079 43.9375 213.629 43.7623 214.064 43.4119C214.5 43.0616 214.822 42.5952 215.03 42.0128C215.243 41.4304 215.35 40.7888 215.35 40.0881C215.35 39.392 215.243 38.7528 215.03 38.1705C214.822 37.5833 214.5 37.1122 214.064 36.7571C213.629 36.402 213.079 36.2244 212.417 36.2244C211.749 36.2244 211.195 36.402 210.755 36.7571C210.319 37.1122 209.995 37.5833 209.782 38.1705C209.573 38.7528 209.469 39.392 209.469 40.0881C209.469 40.7888 209.573 41.4304 209.782 42.0128C209.995 42.5952 210.319 43.0616 210.755 43.4119C211.195 43.7623 211.749 43.9375 212.417 43.9375ZM226.776 40.9759V34.5909H228.906V45.5H226.818V43.6108H226.705C226.454 44.1932 226.051 44.6785 225.497 45.0668C224.948 45.4503 224.264 45.642 223.445 45.642C222.744 45.642 222.124 45.4882 221.584 45.1804C221.049 44.8679 220.627 44.4062 220.32 43.7955C220.017 43.1847 219.865 42.4295 219.865 41.5298V34.5909H221.989V41.2741C221.989 42.0175 222.195 42.6094 222.607 43.0497C223.018 43.4901 223.554 43.7102 224.212 43.7102C224.609 43.7102 225.005 43.6108 225.398 43.4119C225.795 43.2131 226.125 42.9124 226.385 42.5099C226.65 42.1075 226.78 41.5961 226.776 40.9759ZM233.883 39.0227V45.5H231.76V34.5909H233.798V36.3665H233.933C234.184 35.7888 234.577 35.3248 235.112 34.9744C235.652 34.6241 236.331 34.4489 237.15 34.4489C237.894 34.4489 238.545 34.6051 239.103 34.9176C239.662 35.2254 240.095 35.6847 240.403 36.2955C240.711 36.9062 240.865 37.6615 240.865 38.5611V45.5H238.741V38.8168C238.741 38.026 238.535 37.4081 238.123 36.9631C237.711 36.5133 237.145 36.2884 236.426 36.2884C235.933 36.2884 235.495 36.3949 235.112 36.608C234.733 36.821 234.432 37.1335 234.21 37.5455C233.992 37.9527 233.883 38.4451 233.883 39.0227ZM248.805 34.5909V36.2955H242.846V34.5909H248.805ZM244.444 31.9773H246.568V42.2969C246.568 42.7088 246.629 43.0189 246.752 43.2273C246.876 43.4309 247.034 43.5705 247.228 43.6463C247.427 43.7173 247.643 43.7528 247.875 43.7528C248.045 43.7528 248.194 43.741 248.322 43.7173C248.45 43.6937 248.549 43.6747 248.62 43.6605L249.004 45.4148C248.881 45.4621 248.706 45.5095 248.478 45.5568C248.251 45.6089 247.967 45.6373 247.626 45.642C247.067 45.6515 246.547 45.5521 246.064 45.3438C245.581 45.1354 245.19 44.8134 244.892 44.3778C244.593 43.9422 244.444 43.3954 244.444 42.7372V31.9773Z" fill="black"/>
</svg>
