<svg width="40" height="40" viewBox="0 0 40 40" fill="none" xmlns="http://www.w3.org/2000/svg">
<path opacity="0.58" d="M1.5 38.5V1.5H38.5V38.5H1.5Z" stroke="#001F54" stroke-width="3"/>
<path d="M35.9998 17H20.3332V23.1667H29.4998C29.3332 24.6667 28.3332 27 26.1665 28.5C24.8332 29.5 22.8332 30.1667 20.3332 30.1667C15.9998 30.1667 12.1665 27.3334 10.8332 23.1667C10.4998 22.1667 10.3332 21 10.3332 19.8334C10.3332 18.6667 10.4998 17.5 10.8332 16.5C10.9998 16.1667 10.9998 15.8334 11.1665 15.6667C12.6665 12.1667 16.1665 9.66671 20.3332 9.66671C23.4998 9.66671 25.4998 11 26.8332 12.1667L31.4998 7.50004C28.6665 5.00004 24.8332 3.33337 20.3332 3.33337C13.8332 3.33337 8.1665 7.00004 5.49984 12.5C4.33317 14.8334 3.6665 17.3334 3.6665 20C3.6665 22.6667 4.33317 25.1667 5.49984 27.5C8.1665 33 13.8332 36.6667 20.3332 36.6667C24.8332 36.6667 28.6665 35.1667 31.3332 32.6667C34.4998 29.8334 36.3332 25.5 36.3332 20.3334C36.3332 19 36.1665 18 35.9998 17Z" stroke="#001F54" stroke-width="3" stroke-miterlimit="10" stroke-linecap="round" stroke-linejoin="round"/>
</svg>
