<svg width="27" height="27" viewBox="0 0 27 27" fill="none" xmlns="http://www.w3.org/2000/svg">
<path d="M11.3332 3.15993C12.014 0.848882 15.3407 1.01032 15.7946 3.37643C15.8627 3.73188 16.0137 4.06623 16.2354 4.35227C16.4571 4.63832 16.7433 4.86797 17.0705 5.02253C17.3977 5.1771 17.7569 5.25221 18.1186 5.24176C18.4804 5.2313 18.8346 5.13558 19.1523 4.96237C21.268 3.81023 23.5071 6.27632 22.1554 8.27182C21.9526 8.57121 21.8232 8.91425 21.7778 9.27306C21.7325 9.63186 21.7724 9.99631 21.8944 10.3368C22.0164 10.6772 22.217 10.9841 22.48 11.2324C22.7429 11.4808 23.0607 11.6636 23.4076 11.7659C25.7186 12.4468 25.5572 15.7735 23.1911 16.2274C22.8356 16.2954 22.5013 16.4465 22.2152 16.6682C21.9292 16.8899 21.6995 17.176 21.545 17.5033C21.3904 17.8305 21.3153 18.1896 21.3257 18.5514C21.3362 18.9132 21.4319 19.2673 21.6051 19.5851C22.7573 21.7008 20.2912 23.9399 18.2957 22.5882C17.9963 22.3853 17.6532 22.256 17.2944 22.2106C16.9356 22.1653 16.5712 22.2052 16.2307 22.3272C15.8903 22.4492 15.5834 22.6498 15.3351 22.9128C15.0867 23.1757 14.9039 23.4935 14.8015 23.8403C14.1207 26.1514 10.794 25.99 10.3401 23.6239C10.2721 23.2684 10.121 22.9341 9.8993 22.648C9.67758 22.362 9.39146 22.1323 9.06422 21.9777C8.73697 21.8232 8.37786 21.7481 8.0161 21.7585C7.65434 21.769 7.30016 21.8647 6.98239 22.0379C4.86672 23.1901 2.62762 20.724 3.97926 18.7285C4.18215 18.4291 4.31153 18.086 4.35688 17.7272C4.40224 17.3684 4.36229 17.004 4.24029 16.6635C4.11828 16.3231 3.91767 16.0162 3.65474 15.7679C3.39182 15.5195 3.07401 15.3367 2.72715 15.2343C0.416097 14.5535 0.577531 11.2268 2.94364 10.7729C3.29909 10.7048 3.63345 10.5538 3.91949 10.3321C4.20553 10.1104 4.43518 9.82424 4.58975 9.497C4.74431 9.16976 4.81942 8.81064 4.80897 8.44888C4.79852 8.08712 4.70279 7.73294 4.52959 7.41517C3.37744 5.29951 5.84353 3.06041 7.83903 4.41205C9.13151 5.28639 10.8922 4.65365 11.3332 3.15993Z" stroke="white" stroke-width="2" stroke-linecap="round" stroke-linejoin="round"/>
<path d="M9.07224 13.3058C9.02082 14.3655 9.39244 15.4021 10.1053 16.1877C10.8182 16.9734 11.814 17.4436 12.8737 17.495C13.9333 17.5464 14.9699 17.1748 15.7555 16.4619C16.5412 15.749 17.0114 14.7532 17.0628 13.6936C17.1143 12.634 16.7426 11.5973 16.0297 10.8117C15.3168 10.0261 14.321 9.55584 13.2614 9.50442C12.2018 9.453 11.1651 9.82462 10.3795 10.5375C9.5939 11.2504 9.12366 12.2462 9.07224 13.3058Z" stroke="white" stroke-width="2" stroke-linecap="round" stroke-linejoin="round"/>
</svg>
