<svg width="20" height="21" viewBox="0 0 20 21" fill="none" xmlns="http://www.w3.org/2000/svg">
<path d="M13.333 11.3334L17.6855 14.2351C17.7483 14.2768 17.8211 14.3008 17.8964 14.3044C17.9717 14.308 18.0466 14.2911 18.113 14.2555C18.1795 14.2199 18.235 14.167 18.2737 14.1024C18.3125 14.0377 18.333 13.9638 18.333 13.8884V7.05839C18.333 6.98508 18.3137 6.91306 18.277 6.8496C18.2403 6.78614 18.1875 6.73349 18.1239 6.69697C18.0603 6.66045 17.9882 6.64136 17.9149 6.6416C17.8416 6.64185 17.7697 6.66144 17.7063 6.69839L13.333 9.25006" stroke="#001F54" stroke-width="2" stroke-linecap="round" stroke-linejoin="round"/>
<path d="M11.6665 5.5H3.33317C2.4127 5.5 1.6665 6.24619 1.6665 7.16667V13.8333C1.6665 14.7538 2.4127 15.5 3.33317 15.5H11.6665C12.587 15.5 13.3332 14.7538 13.3332 13.8333V7.16667C13.3332 6.24619 12.587 5.5 11.6665 5.5Z" stroke="#001F54" stroke-width="2" stroke-linecap="round" stroke-linejoin="round"/>
</svg>
