<svg width="26" height="25" viewBox="0 0 26 25" fill="none" xmlns="http://www.w3.org/2000/svg">
<g clip-path="url(#clip0_483_65)">
<path d="M9.1594 14.5065L9.79638 13.3878C9.98733 13.0524 9.61637 12.5573 9.2835 12.3678L5.76131 10.3623C5.42802 10.1725 5.39897 10.4399 5.20801 10.7753L4.57103 11.894L9.1594 14.5065ZM15.8334 18.3066L16.4704 17.1878C16.6613 16.8525 17.1705 16.8585 17.5042 17.0485L21.0256 19.0535C21.3568 19.242 21.6668 19.7025 21.4759 20.0379L20.8389 21.1566L15.8334 18.3066ZM11.6556 17.8832C8.43123 16.06 8.6578 15.3875 8.85421 15.0425L8.9219 14.9237L4.33353 12.3111L4.25231 12.4538C3.90247 13.0682 3.20587 16.6402 10.3295 20.6963C17.4536 24.7526 20.1703 22.3308 20.5202 21.7164L20.6014 21.5737L15.5959 18.7237L15.5282 18.8426C15.3318 19.1875 14.8781 19.7058 11.6556 17.8832ZM7.03494 9.87452C7.39378 9.80985 7.76295 9.87643 8.07955 10.0567C8.39615 10.237 8.64182 10.5205 8.76976 10.8623L9.69715 10.5082C9.48379 9.95391 9.08555 9.49028 8.56976 9.19575C8.05323 8.90251 7.45129 8.79664 6.86571 8.89606L7.03494 9.87452ZM12.1185 9.93323C11.7382 8.75356 10.9294 7.75934 9.85181 7.14684C8.77646 6.53456 7.51756 6.34361 6.30891 6.61928L6.50486 7.58866C7.47598 7.36463 8.49584 7.5141 9.36184 8.00737C10.2331 8.50144 10.8838 9.30834 11.182 10.2644L12.1185 9.93323ZM14.5392 9.35948C13.9936 7.55556 12.7755 6.03039 11.1368 5.09959C9.49873 4.16692 7.58647 3.89725 5.75491 4.33857L5.973 5.30785C7.55696 4.9212 9.22886 5.1562 10.6449 5.96452C12.0727 6.77749 13.1221 8.08919 13.5976 9.66183L14.5392 9.35948ZM16.9636 8.78013C16.2467 6.35495 14.6167 4.30255 12.4169 3.05508C10.2165 1.80226 7.65288 1.44948 5.19764 2.06263L5.43847 3.02497C7.63511 2.47228 9.96043 2.79147 11.9269 3.91561C13.9124 5.04612 15.3635 6.87374 16.0095 9.06268L16.9636 8.78013Z" fill="white"/>
</g>
<defs>
<clipPath id="clip0_483_65">
<rect width="24" height="24" fill="white" transform="translate(0.5 0.977539) rotate(-2.23661)"/>
</clipPath>
</defs>
</svg>
