<svg width="50" height="51" viewBox="0 0 50 51" fill="none" xmlns="http://www.w3.org/2000/svg">
<path d="M25.0417 6.5625C18.1459 6.5625 12.5417 12.1667 12.5417 19.0625V25.0833C12.5417 26.3542 12.0001 28.2917 11.3542 29.375L8.95839 33.3542C7.47923 35.8125 8.50006 38.5417 11.2084 39.4583C20.1876 42.4583 29.8751 42.4583 38.8542 39.4583C41.3751 38.625 42.4792 35.6458 41.1042 33.3542L38.7084 29.375C38.0834 28.2917 37.5417 26.3542 37.5417 25.0833V19.0625C37.5417 12.1875 31.9167 6.5625 25.0417 6.5625Z" stroke="#001F54" stroke-width="3" stroke-miterlimit="10" stroke-linecap="round"/>
<path d="M28.8958 7.1665C28.25 6.979 27.5833 6.83317 26.8958 6.74984C24.8958 6.49984 22.9792 6.64567 21.1875 7.1665C21.7917 5.62484 23.2917 4.5415 25.0417 4.5415C26.7917 4.5415 28.2917 5.62484 28.8958 7.1665Z" stroke="#001F54" stroke-width="3" stroke-miterlimit="10" stroke-linecap="round" stroke-linejoin="round"/>
<path d="M31.2915 40.2085C31.2915 43.646 28.479 46.4585 25.0415 46.4585C23.3332 46.4585 21.7498 45.7502 20.6248 44.6252C19.4998 43.5002 18.7915 41.9168 18.7915 40.2085" stroke="#001F54" stroke-width="3" stroke-miterlimit="10"/>
</svg>
