<svg width="50" height="51" viewBox="0 0 50 51" fill="none" xmlns="http://www.w3.org/2000/svg">
<path d="M25.2498 27.1248C25.104 27.104 24.9165 27.104 24.7498 27.1248C21.0832 26.9998 18.1665 23.9998 18.1665 20.3123C18.1665 16.5415 21.2082 13.479 24.9998 13.479C28.7707 13.479 31.8332 16.5415 31.8332 20.3123C31.8123 23.9998 28.9165 26.9998 25.2498 27.1248Z" stroke="#001F54" stroke-width="3" stroke-linecap="round" stroke-linejoin="round"/>
<path d="M39.0418 40.875C35.3335 44.2708 30.4168 46.3333 25.0002 46.3333C19.5835 46.3333 14.6668 44.2708 10.9585 40.875C11.1668 38.9167 12.4168 37 14.646 35.5C20.3543 31.7083 29.6877 31.7083 35.3543 35.5C37.5835 37 38.8335 38.9167 39.0418 40.875Z" stroke="#001F54" stroke-width="3" stroke-linecap="round" stroke-linejoin="round"/>
<path d="M24.9998 46.3332C36.5058 46.3332 45.8332 37.0058 45.8332 25.4998C45.8332 13.9939 36.5058 4.6665 24.9998 4.6665C13.4939 4.6665 4.1665 13.9939 4.1665 25.4998C4.1665 37.0058 13.4939 46.3332 24.9998 46.3332Z" stroke="#001F54" stroke-width="3" stroke-linecap="round" stroke-linejoin="round"/>
</svg>
