<svg width="54" height="53" viewBox="0 0 54 53" fill="none" xmlns="http://www.w3.org/2000/svg">
<path d="M22.3472 5.15833C23.5306 0.280556 30.4694 0.280556 31.6528 5.15833C31.8303 5.89111 32.1784 6.57161 32.6686 7.14444C33.1589 7.71728 33.7775 8.16626 34.474 8.45485C35.1706 8.74344 35.9255 8.86347 36.6772 8.80519C37.4289 8.74691 38.1562 8.51195 38.8 8.11944C43.0861 5.50833 47.9944 10.4139 45.3833 14.7028C44.9914 15.3463 44.7568 16.0732 44.6987 16.8244C44.6405 17.5756 44.7604 18.3299 45.0487 19.0261C45.3369 19.7222 45.7854 20.3405 46.3576 20.8307C46.9298 21.3209 47.6095 21.6692 48.3417 21.8472C53.2194 23.0306 53.2194 29.9694 48.3417 31.1528C47.6089 31.3303 46.9284 31.6784 46.3556 32.1686C45.7827 32.6589 45.3337 33.2775 45.0451 33.974C44.7566 34.6706 44.6365 35.4255 44.6948 36.1772C44.7531 36.9289 44.988 37.6562 45.3806 38.3C47.9917 42.5861 43.0861 47.4944 38.7972 44.8833C38.1537 44.4914 37.4268 44.2568 36.6756 44.1987C35.9244 44.1405 35.1701 44.2604 34.4739 44.5487C33.7778 44.8369 33.1595 45.2854 32.6693 45.8576C32.1791 46.4298 31.8308 47.1095 31.6528 47.8417C30.4694 52.7194 23.5306 52.7194 22.3472 47.8417C22.1697 47.1089 21.8216 46.4284 21.3314 45.8556C20.8411 45.2827 20.2225 44.8337 19.526 44.5451C18.8294 44.2566 18.0745 44.1365 17.3228 44.1948C16.5711 44.2531 15.8438 44.488 15.2 44.8806C10.9139 47.4917 6.00556 42.5861 8.61667 38.2972C9.00861 37.6537 9.2432 36.9268 9.30134 36.1756C9.35949 35.4244 9.23956 34.6701 8.95131 33.9739C8.66306 33.2778 8.21461 32.6595 7.64242 32.1693C7.07024 31.6791 6.39046 31.3308 5.65833 31.1528C0.780556 29.9694 0.780556 23.0306 5.65833 21.8472C6.39111 21.6697 7.07161 21.3216 7.64444 20.8314C8.21728 20.3411 8.66626 19.7225 8.95485 19.026C9.24344 18.3294 9.36347 17.5745 9.30519 16.8228C9.24691 16.0711 9.01195 15.3438 8.61944 14.7C6.00833 10.4139 10.9139 5.50556 15.2028 8.11667C17.9806 9.80556 21.5806 8.31111 22.3472 5.15833Z" stroke="#001F54" stroke-width="3" stroke-linecap="round" stroke-linejoin="round"/>
<path d="M18.6665 26.4998C18.6665 28.71 19.5445 30.8296 21.1073 32.3924C22.6701 33.9552 24.7897 34.8332 26.9998 34.8332C29.21 34.8332 31.3296 33.9552 32.8924 32.3924C34.4552 30.8296 35.3332 28.71 35.3332 26.4998C35.3332 24.2897 34.4552 22.1701 32.8924 20.6073C31.3296 19.0445 29.21 18.1665 26.9998 18.1665C24.7897 18.1665 22.6701 19.0445 21.1073 20.6073C19.5445 22.1701 18.6665 24.2897 18.6665 26.4998Z" stroke="#001F54" stroke-width="3" stroke-linecap="round" stroke-linejoin="round"/>
</svg>
