<svg width="24" height="24" viewBox="0 0 24 24" fill="none" xmlns="http://www.w3.org/2000/svg">
<mask id="path-1-inside-1_204_680" fill="white">
<path fill-rule="evenodd" clip-rule="evenodd" d="M18.8 8.20018H16V7.00018H19.001C19.551 7.00018 20 7.44618 20 7.99618V21.0042C19.9989 21.268 19.8937 21.5207 19.7071 21.7073C19.5206 21.8939 19.2678 21.9991 19.004 22.0002H4.996C4.73217 21.9991 4.47944 21.8939 4.29289 21.7073C4.10633 21.5207 4.00105 21.268 4 21.0042V7.99618C4.00106 7.73183 4.10674 7.47865 4.29395 7.29201C4.48115 7.10537 4.73465 7.00044 4.999 7.00018H8V8.20018H5.2V20.8002H18.8V8.20018ZM12.6 4.26218V13.5002H11.4V4.26218L9.313 6.34918L8.464 5.50018L11.293 2.67218C11.4805 2.48471 11.7348 2.37939 12 2.37939C12.2652 2.37939 12.5195 2.48471 12.707 2.67218L15.536 5.50018L14.687 6.34918L12.6 4.26218Z"/>
</mask>
<path fill-rule="evenodd" clip-rule="evenodd" d="M18.8 8.20018H16V7.00018H19.001C19.551 7.00018 20 7.44618 20 7.99618V21.0042C19.9989 21.268 19.8937 21.5207 19.7071 21.7073C19.5206 21.8939 19.2678 21.9991 19.004 22.0002H4.996C4.73217 21.9991 4.47944 21.8939 4.29289 21.7073C4.10633 21.5207 4.00105 21.268 4 21.0042V7.99618C4.00106 7.73183 4.10674 7.47865 4.29395 7.29201C4.48115 7.10537 4.73465 7.00044 4.999 7.00018H8V8.20018H5.2V20.8002H18.8V8.20018ZM12.6 4.26218V13.5002H11.4V4.26218L9.313 6.34918L8.464 5.50018L11.293 2.67218C11.4805 2.48471 11.7348 2.37939 12 2.37939C12.2652 2.37939 12.5195 2.48471 12.707 2.67218L15.536 5.50018L14.687 6.34918L12.6 4.26218Z" fill="#001F54"/>
<path d="M18.8 8.20018H21.8V5.20018H18.8V8.20018ZM16 8.20018H13V11.2002H16V8.20018ZM16 7.00018V4.00018H13V7.00018H16ZM20 21.0042L23 21.0162V21.0042H20ZM19.004 22.0002V25.0002L19.016 25.0002L19.004 22.0002ZM4.996 22.0002L4.98402 25.0002H4.996V22.0002ZM4 21.0042H0.999976L1.00002 21.0162L4 21.0042ZM4 7.99618L1 7.98418V7.99618H4ZM4.999 7.00018V4.00018L4.99602 4.00018L4.999 7.00018ZM8 7.00018H11V4.00018H8V7.00018ZM8 8.20018V11.2002H11V8.20018H8ZM5.2 8.20018V5.20018H2.2V8.20018H5.2ZM5.2 20.8002H2.2V23.8002H5.2V20.8002ZM18.8 20.8002V23.8002H21.8V20.8002H18.8ZM12.6 4.26218L14.7213 2.14086L9.6 -2.98046V4.26218H12.6ZM12.6 13.5002V16.5002H15.6V13.5002H12.6ZM11.4 13.5002H8.4V16.5002H11.4V13.5002ZM11.4 4.26218H14.4V-2.98046L9.27868 2.14086L11.4 4.26218ZM9.313 6.34918L7.19168 8.4705L9.313 10.5918L11.4343 8.4705L9.313 6.34918ZM8.464 5.50018L6.34305 3.37849L4.22098 5.49981L6.34268 7.6215L8.464 5.50018ZM11.293 2.67218L13.4139 4.79388L13.414 4.79382L11.293 2.67218ZM12.707 2.67218L10.586 4.79382L10.5861 4.79388L12.707 2.67218ZM15.536 5.50018L17.6573 7.6215L19.779 5.49981L17.6569 3.37849L15.536 5.50018ZM14.687 6.34918L12.5657 8.4705L14.687 10.5918L16.8083 8.4705L14.687 6.34918ZM18.8 5.20018H16V11.2002H18.8V5.20018ZM19 8.20018V7.00018H13V8.20018H19ZM16 10.0002H19.001V4.00018H16V10.0002ZM19.001 10.0002C17.9059 10.0002 17 9.11477 17 7.99618H23C23 5.77759 21.1961 4.00018 19.001 4.00018V10.0002ZM17 7.99618V21.0042H23V7.99618H17ZM17 20.9922C17.0021 20.4645 17.2127 19.9591 17.5858 19.586L21.8284 23.8286C22.5747 23.0824 22.9958 22.0715 23 21.0162L17 20.9922ZM17.5858 19.586C17.9589 19.2129 18.4644 19.0023 18.992 19.0002L19.016 25.0002C20.0713 24.9959 21.0822 24.5749 21.8284 23.8286L17.5858 19.586ZM19.004 19.0002H4.996V25.0002H19.004V19.0002ZM5.00798 19.0002C5.53564 19.0023 6.04109 19.2129 6.41421 19.586L2.17156 23.8286C2.9178 24.5749 3.9287 24.9959 4.98402 25.0002L5.00798 19.0002ZM6.41421 19.586C6.78732 19.9591 6.99787 20.4645 6.99998 20.9922L1.00002 21.0162C1.00424 22.0715 1.42533 23.0824 2.17156 23.8286L6.41421 19.586ZM7 21.0042V7.99618H1V21.0042H7ZM6.99998 8.00818C6.99786 8.53688 6.78649 9.04323 6.41208 9.41652L2.17582 5.1675C1.427 5.91408 1.00425 6.92678 1.00002 7.98418L6.99998 8.00818ZM6.41208 9.41652C6.03766 9.78981 5.53068 9.99966 5.00198 10.0002L4.99602 4.00018C3.93862 4.00123 2.92465 4.42093 2.17582 5.1675L6.41208 9.41652ZM4.999 10.0002H8V4.00018H4.999V10.0002ZM5 7.00018V8.20018H11V7.00018H5ZM8 5.20018H5.2V11.2002H8V5.20018ZM2.2 8.20018V20.8002H8.2V8.20018H2.2ZM5.2 23.8002H18.8V17.8002H5.2V23.8002ZM21.8 20.8002V8.20018H15.8V20.8002H21.8ZM9.6 4.26218V13.5002H15.6V4.26218H9.6ZM12.6 10.5002H11.4V16.5002H12.6V10.5002ZM14.4 13.5002V4.26218H8.4V13.5002H14.4ZM9.27868 2.14086L7.19168 4.22786L11.4343 8.4705L13.5213 6.3835L9.27868 2.14086ZM11.4343 4.22786L10.5853 3.37886L6.34268 7.6215L7.19168 8.4705L11.4343 4.22786ZM10.5849 7.62188L13.4139 4.79388L9.17206 0.550485L6.34305 3.37849L10.5849 7.62188ZM13.414 4.79382C13.0389 5.16876 12.5303 5.37939 12 5.37939V-0.620605C10.9393 -0.620605 9.92211 -0.199344 9.172 0.55054L13.414 4.79382ZM12 5.37939C11.4697 5.37939 10.9611 5.16876 10.586 4.79382L14.828 0.55054C14.0779 -0.199344 13.0607 -0.620605 12 -0.620605V5.37939ZM10.5861 4.79388L13.4151 7.62188L17.6569 3.37849L14.8279 0.550485L10.5861 4.79388ZM13.4147 3.37886L12.5657 4.22786L16.8083 8.4705L17.6573 7.6215L13.4147 3.37886ZM16.8083 4.22786L14.7213 2.14086L10.4787 6.3835L12.5657 8.4705L16.8083 4.22786Z" fill="#001F54" mask="url(#path-1-inside-1_204_680)"/>
</svg>
