<svg width="32" height="33" viewBox="0 0 32 33" fill="none" xmlns="http://www.w3.org/2000/svg">
<path d="M16 31.5C18.9667 31.5 21.8668 30.6203 24.3335 28.972C26.8003 27.3238 28.7229 24.9811 29.8582 22.2403C30.9935 19.4994 31.2906 16.4834 30.7118 13.5737C30.133 10.6639 28.7044 7.99119 26.6066 5.8934C24.5088 3.79562 21.8361 2.36701 18.9264 1.78823C16.0166 1.20945 13.0006 1.5065 10.2597 2.64181C7.51886 3.77713 5.17618 5.69972 3.52796 8.16645C1.87973 10.6332 1 13.5333 1 16.5C1 18.98 1.6 21.3167 2.66667 23.3783L1 31.5L9.12167 29.8333C11.1817 30.8983 13.5217 31.5 16 31.5Z" stroke="white" stroke-width="2" stroke-linecap="round" stroke-linejoin="round"/>
</svg>
