<svg width="25" height="25" viewBox="0 0 25 25" fill="none" xmlns="http://www.w3.org/2000/svg">
<path d="M11.25 24.9375C9.66667 24.7708 8.19292 24.3388 6.82875 23.6413C5.46458 22.9438 4.27708 22.0375 3.26625 20.9225C2.25542 19.8075 1.45833 18.5312 0.875 17.0938C0.291667 15.6562 0 14.125 0 12.5C0 10.6042 0.380417 8.85417 1.14125 7.25C1.90208 5.64583 2.93833 4.27083 4.25 3.125H1.25V0.625H8.75V8.125H6.25V4.71875C5.10417 5.63542 4.19292 6.76583 3.51625 8.11C2.83958 9.45417 2.50083 10.9175 2.5 12.5C2.5 15.0625 3.33875 17.2762 5.01625 19.1412C6.69375 21.0062 8.77167 22.0946 11.25 22.4062V24.9375ZM10.7188 18.25L5.4375 12.9375L7.1875 11.1875L10.7188 14.7187L17.8125 7.625L19.5625 9.40625L10.7188 18.25ZM16.25 24.375V16.875H18.75V20.2813C19.8958 19.3438 20.8075 18.2083 21.485 16.875C22.1625 15.5417 22.5008 14.0833 22.5 12.5C22.5 9.9375 21.6612 7.72417 19.9837 5.86C18.3062 3.99583 16.2283 2.90708 13.75 2.59375V0.0625C16.9167 0.375 19.5833 1.70833 21.75 4.0625C23.9167 6.41667 25 9.22917 25 12.5C25 14.3958 24.6196 16.1458 23.8587 17.75C23.0979 19.3542 22.0617 20.7292 20.75 21.875H23.75V24.375H16.25Z" fill="white"/>
</svg>
