<svg width="30" height="31" viewBox="0 0 30 31" fill="none" xmlns="http://www.w3.org/2000/svg">
<path fill-rule="evenodd" clip-rule="evenodd" d="M15 27.9286C20.5009 27.9286 25.4809 23.1071 28.1564 15.5C25.4809 7.89286 20.5009 3.07143 15 3.07143C9.49909 3.07143 4.51909 7.89286 1.84364 15.5C4.51909 23.1071 9.49909 27.9286 15 27.9286ZM15 0.5C21.5564 0.5 27.2345 6.60286 30 15.5C27.2345 24.3971 21.5564 30.5 15 30.5C8.44364 30.5 2.76545 24.3971 0 15.5C2.76545 6.60286 8.44364 0.5 15 0.5ZM15 21.5C16.0126 21.5 16.9838 20.8679 17.6999 19.7426C18.4159 18.6174 18.8182 17.0913 18.8182 15.5C18.8182 13.9087 18.4159 12.3826 17.6999 11.2574C16.9838 10.1321 16.0126 9.5 15 9.5C13.9874 9.5 13.0162 10.1321 12.3001 11.2574C11.5841 12.3826 11.1818 13.9087 11.1818 15.5C11.1818 17.0913 11.5841 18.6174 12.3001 19.7426C13.0162 20.8679 13.9874 21.5 15 21.5ZM15 24.0714C13.5534 24.0714 12.166 23.1684 11.1431 21.5609C10.1201 19.9535 9.54545 17.7733 9.54545 15.5C9.54545 13.2267 10.1201 11.0465 11.1431 9.43908C12.166 7.83163 13.5534 6.92857 15 6.92857C16.4466 6.92857 17.834 7.83163 18.8569 9.43908C19.8799 11.0465 20.4545 13.2267 20.4545 15.5C20.4545 17.7733 19.8799 19.9535 18.8569 21.5609C17.834 23.1684 16.4466 24.0714 15 24.0714Z" fill="white"/>
</svg>
