<svg width="25" height="25" viewBox="0 0 25 25" fill="none" xmlns="http://www.w3.org/2000/svg">
<path d="M12.5 24.5C9.025 23.8 6.156 22.2048 3.893 19.7144C1.63 17.224 0.499001 14.4592 0.500001 11.42V4.1L12.5 0.5L24.5 4.1V11.42C24.5 12.68 24.2935 13.9052 23.8805 15.0956C23.4675 16.286 22.874 17.4208 22.1 18.5L17.675 14.96C17.95 14.58 18.1565 14.1852 18.2945 13.7756C18.4325 13.366 18.501 12.9408 18.5 12.5C18.5 11.18 17.9125 10.05 16.7375 9.11C15.5625 8.17 14.15 7.7 12.5 7.7C10.85 7.7 9.4375 8.17 8.2625 9.11C7.0875 10.05 6.5 11.18 6.5 12.5C6.5 13.82 7.0875 14.95 8.2625 15.89C9.4375 16.83 10.85 17.3 12.5 17.3C13.025 17.3 13.544 17.2452 14.057 17.1356C14.57 17.026 15.051 16.8608 15.5 16.64L20.3375 20.48C19.2875 21.46 18.106 22.3 16.793 23C15.48 23.7 14.049 24.2 12.5 24.5ZM12.5 14.9C11.675 14.9 10.969 14.6652 10.382 14.1956C9.795 13.726 9.501 13.1608 9.5 12.5C9.499 11.8392 9.793 11.2744 10.382 10.8056C10.971 10.3368 11.677 10.1016 12.5 10.1C13.323 10.0984 14.0295 10.3336 14.6195 10.8056C15.2095 11.2776 15.503 11.8424 15.5 12.5C15.497 13.1576 15.2035 13.7228 14.6195 14.1956C14.0355 14.6684 13.329 14.9032 12.5 14.9Z" fill="white"/>
</svg>
