<svg width="24" height="25" viewBox="0 0 24 25" fill="none" xmlns="http://www.w3.org/2000/svg">
<rect x="0.5" y="1" width="23" height="23" rx="11.5" stroke="#001F54"/>
<path d="M15.333 13.3334L19.6855 16.2351C19.7483 16.2768 19.8211 16.3008 19.8964 16.3044C19.9717 16.308 20.0466 16.2911 20.113 16.2555C20.1795 16.2199 20.235 16.167 20.2737 16.1024C20.3125 16.0377 20.333 15.9638 20.333 15.8884V9.05839C20.333 8.98508 20.3137 8.91306 20.277 8.8496C20.2403 8.78614 20.1875 8.73349 20.1239 8.69697C20.0603 8.66045 19.9882 8.64136 19.9149 8.6416C19.8416 8.64185 19.7697 8.66144 19.7063 8.69839L15.333 11.2501" stroke="#001F54" stroke-width="2" stroke-linecap="round" stroke-linejoin="round"/>
<path d="M13.6665 7.5H5.33317C4.4127 7.5 3.6665 8.24619 3.6665 9.16667V15.8333C3.6665 16.7538 4.4127 17.5 5.33317 17.5H13.6665C14.587 17.5 15.3332 16.7538 15.3332 15.8333V9.16667C15.3332 8.24619 14.587 7.5 13.6665 7.5Z" stroke="#001F54" stroke-width="2" stroke-linecap="round" stroke-linejoin="round"/>
</svg>
